# xmcd
# 
# Track frame offsets:
#     150
#     25204
#     43356
#     61738
#     82249
#     106234
#     126561
#     139870
#     157382
#     180427
#     195215
#     213812
# 
# Disc length: 2859
# 
# Revision: 1
# Processed by: cddbd v1.5.2PL0 Copyright (c) Steve Scherf et al.
# Submitted via: BonkEnc v1.0.8
# 
DISCID=ab0b290c
DTITLE=Stephen E. Ambrose - Band of Brothers
DYEAR=1998
DGENRE=Audio Book
TTITLE0=05.01-Band of Brothers
TTITLE1=05.02-Band of Brothers
TTITLE2=05.03-Band of Brothers
TTITLE3=05.04-Band of Brothers
TTITLE4=05.05-Band of Brothers
TTITLE5=05.06-Band of Brothers
TTITLE6=05.07-Band of Brothers
TTITLE7=05.08-Band of Brothers
TTITLE8=05.09-Band of Brothers
TTITLE9=05.10-Band of Brothers
TTITLE10=05.11-Band of Brothers
TTITLE11=05.12-Band of Brothers
EXTD=
EXTT0=
EXTT1=
EXTT2=
EXTT3=
EXTT4=
EXTT5=
EXTT6=
EXTT7=
EXTT8=
EXTT9=
EXTT10=
EXTT11=
PLAYORDER=
